<svg xmlns="http://www.w3.org/2000/svg" style="display:none">
  <symbol id="icon-moon" viewBox="0 0 24 24">
    <path fill="currentColor" d="M21 12.79A9 9 0 0 1 11.21 3 7 7 0 1 0 21 12.79z"/>
  </symbol>
  <symbol id="icon-arrow" viewBox="0 0 24 24">
    <path fill="currentColor" d="M13 5l7 7-7 7v-4H4v-6h9V5z"/>
  </symbol>
  <symbol id="icon-star" viewBox="0 0 24 24">
    <path fill="currentColor" d="m12 17.27 6.18 3.73-1.64-7.03L21 9.24l-7.19-.61L12 2 10.19 8.63 3 9.24l4.46 4.73-1.64 7.03L12 17.27z"/>
  </symbol>
  <symbol id="icon-instagram" viewBox="0 0 24 24">
    <path fill="currentColor" d="M7 2h10a5 5 0 0 1 5 5v10a5 5 0 0 1-5 5H7a5 5 0 0 1-5-5V7a5 5 0 0 1 5-5m0 2a3 3 0 0 0-3 3v10a3 3 0 0 0 3 3h10a3 3 0 0 0 3-3V7a3 3 0 0 0-3-3H7m5 3a5 5 0 1 1 0 10 5 5 0 0 1 0-10m6-1.25a1.25 1.25 0 1 1 0 2.5 1.25 1.25 0 0 1 0-2.5Z"/>
  </symbol>
  <symbol id="icon-tiktok" viewBox="0 0 24 24">
    <path fill="currentColor" d="M14 3c.7 2.2 2.3 3.8 4.5 4.5V11a7 7 0 1 1-7-7h2.5Zm-2.5 6.5V17a3 3 0 1 0 3-3h-1.5V7.9a6.8 6.8 0 0 1-1.5.1Z"/>
  </symbol>
</svg>
